<svg width="4334" height="562" viewBox="0 0 4334 562" fill="none" xmlns="http://www.w3.org/2000/svg">
<path d="M116.585 1.49512H209.255V352.745C209.255 357.229 208.882 365.574 208.134 377.781C207.387 389.987 205.145 403.813 201.408 419.258C197.671 434.703 191.568 450.896 183.098 467.835C174.628 484.775 162.671 500.22 147.226 514.17C131.781 528.121 112.101 539.58 88.1862 548.548C64.2713 557.516 34.8759 562 0 562V470.825C29.3954 470.825 51.9401 465.344 67.6343 454.383C83.3284 443.422 94.6631 430.842 101.638 416.642C108.613 402.443 112.599 388.866 113.596 375.912C114.592 362.959 115.339 354.24 115.838 349.755L116.585 1.49512Z" fill="#FF6200"/>
<path d="M643.46 2.24272C672.357 3.73742 698.265 10.4634 721.183 22.4208C730.65 27.4032 740.116 33.7555 749.582 41.4781C759.048 49.2006 767.394 58.7913 774.618 70.2506C781.842 81.7098 787.696 95.162 792.181 110.607C796.665 126.052 798.907 143.988 798.907 164.415C798.907 185.341 796.665 203.526 792.181 218.971C787.696 234.416 781.842 247.993 774.618 259.701C767.394 271.409 759.048 281.249 749.582 289.221C740.116 297.193 730.649 303.67 721.183 308.652C698.265 321.108 672.357 328.083 643.46 329.578H455.13V562H361.713V235.413H636.734C637.232 235.413 641.218 235.039 648.691 234.292C656.165 233.544 664.012 230.929 672.232 226.445C680.453 221.961 688.051 214.985 695.026 205.519C702.002 196.053 705.489 182.352 705.489 164.415C705.489 146.977 701.877 133.65 694.653 124.433C687.428 115.216 679.581 108.365 671.111 103.881C661.147 98.4004 649.688 95.411 636.734 94.9127H361.713V1.49512H643.46V2.24272Z" fill="#FF6200"/>
<path d="M1147.91 239.897H1490.94V334.061H1241.33V562H1147.91V239.897ZM1147.91 1.49512H1521.58V94.9127H1147.91V1.49512Z" fill="#FF6200"/>
<path d="M1662.83 1.49512H1755.5V489.508L1662.83 562V1.49512Z" fill="#FF6200"/>
<path d="M2226.33 0.748047V94.1655H2039.49V562H1945.33V0.748047H2226.33Z" fill="#FF6200"/>
<path d="M2748.72 73.2393L2842.13 0V562L2457.25 218.971V488.761L2363.84 562V0L2748.72 353.492V73.2393Z" fill="#FF6200"/>
<path d="M2997.58 562V468.583H3372V562H2997.58ZM3330.15 234.665V328.083H2997.58V234.665H3330.15ZM2997.58 1.49512H3372V94.9127H2997.58V1.49512Z" fill="#FF6200"/>
<path d="M3702.32 230.181C3706.31 230.679 3713.16 231.675 3722.87 233.17C3732.59 234.665 3743.55 237.53 3755.76 241.765C3767.96 246 3780.54 251.605 3793.5 258.58C3806.45 265.555 3818.16 275.146 3828.62 287.352C3839.09 299.559 3847.8 314.381 3854.78 331.819C3861.76 349.257 3865.24 370.182 3865.24 394.596C3865.24 395.592 3864.87 400.45 3864.12 409.169C3863.37 417.888 3861.01 428.475 3857.02 440.931C3853.04 453.386 3847.06 466.589 3839.09 480.54C3831.11 494.49 3819.65 507.568 3804.71 519.775C3789.76 531.982 3770.95 542.071 3748.28 550.042C3725.61 558.014 3697.84 562 3664.96 562C3634.56 562 3605.79 555.647 3578.64 542.943C3551.48 530.238 3528.19 512.675 3508.76 490.255L3584.99 431.215C3584.99 431.714 3586.86 433.956 3590.6 437.941C3594.33 441.927 3599.81 446.162 3607.04 450.646C3614.26 455.13 3623.48 459.241 3634.69 462.977C3645.9 466.714 3659.23 468.582 3674.67 468.582C3703.07 468.582 3725.24 461.234 3741.18 446.536C3757.13 431.838 3765.1 414.525 3765.1 394.596C3765.1 380.147 3762.11 368.314 3756.13 359.097C3750.15 349.88 3742.06 342.406 3731.84 336.677C3721.63 330.947 3709.92 326.463 3696.72 323.225C3683.51 319.986 3669.44 316.873 3654.49 313.883C3650.51 313.385 3643.91 312.139 3634.69 310.146C3625.47 308.154 3615.26 304.915 3604.05 300.431C3592.84 295.947 3581.13 290.093 3568.92 282.869C3556.72 275.644 3545.75 266.427 3536.04 255.217C3526.32 244.007 3518.23 230.555 3511.75 214.861C3505.27 199.167 3502.04 180.608 3502.04 159.184C3502.04 158.187 3502.41 153.579 3503.16 145.358C3503.9 137.137 3506.15 127.173 3509.88 115.465C3513.62 103.756 3519.6 91.176 3527.82 77.7239C3536.04 64.2718 3547.62 51.9406 3562.57 40.7305C3577.52 29.5204 3596.32 20.1787 3618.99 12.7053C3641.66 5.23192 3669.44 1.49512 3702.32 1.49512C3732.71 1.49512 3761.61 7.97217 3789.01 20.9261C3816.42 33.8801 3839.83 51.567 3859.26 73.9872L3783.04 133.027C3777.55 123.561 3769.83 116.212 3759.87 110.981C3749.9 105.749 3739.94 101.888 3729.97 99.3967C3718.02 96.9056 3705.31 95.4109 3691.86 94.9127C3663.46 94.9127 3641.29 100.518 3625.35 111.728C3609.4 122.938 3601.43 138.757 3601.43 159.184C3601.43 173.633 3603.92 184.967 3608.9 193.188C3613.89 201.409 3620.74 207.761 3629.46 212.245C3638.18 216.729 3648.76 220.092 3661.22 222.334C3673.67 224.576 3687.38 227.191 3702.32 230.181Z" fill="#FF6200"/>
<path d="M4170.16 230.181C4174.14 230.679 4180.99 231.675 4190.71 233.17C4200.42 234.665 4211.39 237.53 4223.59 241.765C4235.8 246 4248.38 251.605 4261.33 258.58C4274.29 265.555 4286 275.146 4296.46 287.352C4306.92 299.559 4315.64 314.381 4322.61 331.819C4329.59 349.257 4333.08 370.182 4333.08 394.596C4333.08 395.592 4332.7 400.45 4331.96 409.169C4331.21 417.888 4328.84 428.475 4324.86 440.931C4320.87 453.386 4314.89 466.589 4306.92 480.54C4298.95 494.49 4287.49 507.568 4272.54 519.775C4257.6 531.982 4238.79 542.071 4216.12 550.042C4193.45 558.014 4165.67 562 4132.79 562C4102.4 562 4073.63 555.647 4046.47 542.943C4019.32 530.238 3996.03 512.675 3976.6 490.255L4052.82 431.215C4052.82 431.714 4054.69 433.956 4058.43 437.941C4062.17 441.927 4067.65 446.162 4074.87 450.646C4082.1 455.13 4091.31 459.241 4102.52 462.977C4113.73 466.714 4127.06 468.582 4142.51 468.582C4170.9 468.582 4193.08 461.234 4209.02 446.536C4224.96 431.838 4232.93 414.525 4232.93 394.596C4232.93 380.147 4229.94 368.314 4223.97 359.097C4217.99 349.88 4209.89 342.406 4199.68 336.677C4189.46 330.947 4177.76 326.463 4164.55 323.225C4151.35 319.986 4137.27 316.873 4122.33 313.883C4118.34 313.385 4111.74 312.139 4102.52 310.146C4093.31 308.154 4083.09 304.915 4071.88 300.431C4060.67 295.947 4048.96 290.093 4036.76 282.869C4024.55 275.644 4013.59 266.427 4003.87 255.217C3994.16 244.007 3986.06 230.555 3979.59 214.861C3973.11 199.167 3969.87 180.608 3969.87 159.184C3969.87 158.187 3970.24 153.579 3970.99 145.358C3971.74 137.137 3973.98 127.173 3977.72 115.465C3981.45 103.756 3987.43 91.176 3995.65 77.7239C4003.87 64.2718 4015.46 51.9406 4030.4 40.7305C4045.35 29.5204 4064.16 20.1787 4086.83 12.7053C4109.5 5.23192 4137.27 1.49512 4170.16 1.49512C4200.55 1.49512 4229.45 7.97217 4256.85 20.9261C4284.25 33.8801 4307.67 51.567 4327.1 73.9872L4250.87 133.027C4245.39 123.561 4237.67 116.212 4227.7 110.981C4217.74 105.749 4207.77 101.888 4197.81 99.3967C4185.85 96.9056 4173.15 95.4109 4159.69 94.9127C4131.3 94.9127 4109.12 100.518 4093.18 111.728C4077.24 122.938 4069.27 138.757 4069.27 159.184C4069.27 173.633 4071.76 184.967 4076.74 193.188C4081.72 201.409 4088.57 207.761 4097.29 212.245C4106.01 216.729 4116.6 220.092 4129.05 222.334C4141.51 224.576 4155.21 227.191 4170.16 230.181Z" fill="#FF6200"/>
</svg>
