<svg width="1689" height="1165" viewBox="0 0 1689 1165" fill="none" xmlns="http://www.w3.org/2000/svg">
<path fill-rule="evenodd" clip-rule="evenodd" d="M1122.41 13.023C1128.56 12.762 1169.28 9.57867 1212.91 5.95026C1256.54 2.32684 1301.05 -0.334375 1311.84 0.0340889L1331.44 0.709601L1362.2 67.2404C1379.11 103.832 1406.45 162.026 1422.95 196.556L1452.95 259.341L1372.59 299.505C1328.4 321.599 1287.49 341.148 1281.7 342.949C1272.27 345.882 1266.23 336.078 1224.55 250.236C1113.67 21.8664 1110.09 13.5552 1122.41 13.023ZM692.269 477.178C687.806 472.721 683.284 32.5114 687.582 21.3035C690.125 14.6761 705.905 13.5041 792.39 13.5041H894.197L897.687 47.5933C904.458 113.659 926.232 353.947 926.275 363.008C926.305 369.404 915.875 376.845 891.772 387.622C872.773 396.119 820.952 420.581 776.61 441.988C732.277 463.393 694.321 479.229 692.269 477.178ZM1010.76 123.782C967.131 65.0041 931.434 16.1398 931.434 15.2084C931.434 14.2718 967.131 13.5042 1010.76 13.5042H1090.09V230.656L1010.76 123.782ZM932.078 183.67C928.829 139.34 924.933 89.8201 923.429 73.6378C921.925 57.4554 921.783 44.2107 923.119 44.2107C926.919 44.2107 1084.97 256.552 1084.97 261.665C1084.97 263.103 1051.89 264.274 1011.48 264.274H937.989L932.078 183.67ZM1400.72 84.6563C1403.07 82.3021 1421.08 73.5712 1440.74 65.2548C1460.39 56.9385 1480.16 49.9527 1484.67 49.7328C1490.09 49.4666 1497.73 60.9971 1507.32 83.8733C1515.27 102.876 1550.39 177.145 1585.37 248.921C1620.34 320.698 1652.2 386.876 1656.15 395.987L1663.35 412.546L1617.91 435.365L1572.48 458.188L1499.31 306.215C1403.09 106.356 1395.68 89.6975 1400.72 84.6563ZM1115.67 265.395L1116.09 171.433L1116.51 77.476L1130.99 108.183C1178.27 208.445 1198.24 255.063 1195.2 258.103C1193.3 260.001 1174.63 262.417 1153.71 263.471L1115.67 265.395ZM1558.8 153.741C1556.07 144.57 1559.91 141.044 1585.13 129.529C1601.37 122.118 1615.24 116.013 1615.96 115.957C1617.24 115.859 1688.86 264.474 1688.86 267.233C1688.86 269.341 1631.17 295.344 1629.98 293.773C1624.75 286.864 1561.23 161.924 1558.8 153.741ZM821.401 448.226C838.29 439.963 931.563 396.647 1028.67 351.974C1125.78 307.299 1206.61 271.516 1208.3 272.453C1209.98 273.389 1224.71 303.6 1241.03 339.581C1257.35 375.572 1273 407.944 1275.8 411.533C1277.66 413.911 1279.3 415.349 1279.29 416.784C1279.28 420.089 1270.58 423.372 1235.94 438.162C1195.83 455.285 1193.09 455.711 1100.32 459.138C1048.25 461.064 957.279 462.776 898.168 462.948L790.695 463.254L821.401 448.226ZM1285.74 370.766C1286.74 367.771 1324.3 347.396 1369.22 325.493C1414.14 303.584 1453.75 285.457 1457.25 285.206C1463.98 284.72 1509.52 372.501 1564.43 491.81L1597.5 563.663L1580.04 579.017C1570.44 587.462 1534.56 619.303 1500.31 649.782L1438.04 705.184L1404.8 635.067C1386.52 596.5 1371.56 563.926 1371.56 562.686C1371.56 561.443 1351.84 518.977 1327.74 468.321C1303.64 417.659 1284.74 373.758 1285.74 370.766ZM97.2377 512.723C97.2377 509.847 131.184 473.49 172.679 431.928C214.168 390.366 250.33 357.1 253.033 358.001C261.221 360.729 429.13 702.519 424.129 706.279C417.624 711.168 245.929 791.405 241.973 791.405C239.307 791.405 222.638 762.279 204.941 726.674C187.238 691.076 155.769 629.551 134.996 589.949C114.228 550.346 97.2377 515.599 97.2377 512.723ZM1238.03 540.635C1261.42 508.263 1282.98 476.601 1285.94 470.264C1288.9 463.927 1292.81 458.749 1294.63 458.749C1297.47 458.749 1337.95 542.615 1400.32 677.714L1417.53 715.001L1367.68 747.336C1263.35 815.003 1279.91 810.029 1128.47 819.195C1055.28 823.625 989.802 827.244 982.955 827.241C972.755 827.228 990.864 806.615 1083.01 713.358C1162.3 633.101 1208.06 582.115 1238.03 540.635ZM1184.76 487.809L1218.03 473.473C1256.49 456.901 1266.48 455.371 1262.12 466.725C1258.13 477.128 1217.88 533.105 1197.94 555.987L1182.33 573.898L1183.55 530.855L1184.76 487.809ZM724.163 498.536C748.071 487.664 758.504 486.717 882.813 484.171C1100.19 479.718 1158.44 479.107 1156.19 481.298C1155.01 482.439 1112.28 501.877 1061.24 524.489C1010.18 547.104 863.642 615.255 735.585 675.942C607.525 736.633 500.349 786.286 497.41 786.286C492.379 786.286 424.693 654.36 424.845 644.853C424.904 641.248 618.846 546.447 724.163 498.536ZM956.193 783.248C951.681 749.827 950.985 604.674 955.319 600.343C960.547 595.111 1156.61 596.269 1156.61 601.53C1156.61 604.057 1112.28 651.632 1058.1 707.243L959.581 808.36L956.193 783.248ZM690.976 722.314L807.369 667.739C871.381 637.719 925.246 612.963 927.064 612.722C933.387 611.884 937.16 759.33 935.577 945.929L933.994 1133.73L859.786 1023.45C818.97 962.798 764.332 882.901 738.366 845.894C692.797 780.949 691.154 777.634 691.068 750.463L690.976 722.314ZM28.1477 670.216C30.9624 669.184 53.9924 658.404 79.3254 646.265C110.441 631.352 126.701 625.992 129.439 629.749C134.587 636.818 322.931 1017.68 324.103 1023.4C324.881 1027.18 229.077 1072.88 220.381 1072.88C218.478 1072.88 212.643 1063.09 207.418 1051.13C187.535 1005.61 137.832 902.27 81.5005 789.327C49.3402 724.847 25.3328 671.248 28.1477 670.216ZM251.559 814.502C252.68 813.374 292.69 793.985 340.464 771.403C388.244 748.831 430.337 730.85 434.011 731.454C440.384 732.499 660.956 1155.23 657.238 1159.27C654.2 1162.57 417.575 1143.89 409.447 1139.7C405.235 1137.54 387.472 1104.92 369.973 1067.22C352.471 1029.52 318.208 957.695 293.832 907.61C269.461 857.521 250.433 815.623 251.559 814.502ZM0 840.409C0 838.805 14.3964 830.899 31.9862 822.827C49.5811 814.762 65.7635 809.745 67.9488 811.691C75.0421 817.992 143.686 956.564 142.085 961.367C141.235 963.923 126.762 971.632 109.93 978.5C81.0603 990.272 78.9469 990.47 72.6777 982.032C65.1956 971.955 0 844.914 0 840.409ZM696.286 1165L694.871 996.114C694.093 903.223 694.607 827.25 696.016 827.28C704.487 827.475 921.199 1149.44 921.199 1161.83C921.199 1163.58 870.592 1165 808.741 1165H696.286ZM669.558 1125.09C664 1119.27 605.748 1009.72 564.918 928.305C531.464 861.589 528.271 852.818 537.421 852.818C547.498 852.818 665.95 877.336 668.579 879.968C669.301 880.694 670.591 936.947 671.442 1004.98C672.29 1073.02 671.445 1127.07 669.558 1125.09Z" fill="#FF6200"/>
</svg>
