<svg width="5450" height="737" viewBox="0 0 5450 737" fill="none" xmlns="http://www.w3.org/2000/svg">
<path fill-rule="evenodd" clip-rule="evenodd" d="M709.126 8.22774C713.008 8.06283 738.735 6.05167 766.3 3.75929C793.865 1.47006 821.988 -0.211253 828.801 0.0215369L841.184 0.448316L860.617 42.4816C871.305 65.5998 888.577 102.366 899.002 124.182L917.955 163.848L867.185 189.223C839.264 203.182 813.419 215.533 809.759 216.671C803.803 218.523 799.985 212.33 773.656 158.096C703.603 13.8149 701.342 8.56399 709.126 8.22774ZM437.366 301.474C434.546 298.659 431.689 20.5402 434.404 13.4593C436.011 9.27214 445.981 8.53171 500.621 8.53171H564.941L567.146 30.0688C571.424 71.8079 585.181 223.619 585.208 229.343C585.227 233.384 578.637 238.086 563.409 244.894C551.406 250.262 518.666 265.717 490.651 279.242C462.643 292.765 438.662 302.771 437.366 301.474ZM638.583 78.2035C611.02 41.0687 588.467 10.1969 588.467 9.60843C588.467 9.01674 611.02 8.53175 638.583 8.53175H688.701V145.725L638.583 78.2035ZM588.874 116.04C586.821 88.033 584.36 56.7471 583.409 46.5233C582.459 36.2995 582.37 27.9317 583.214 27.9317C585.614 27.9317 685.466 162.086 685.466 165.316C685.466 166.225 664.572 166.965 639.039 166.965H592.608L588.874 116.04ZM884.954 53.4847C886.442 51.9973 897.82 46.4812 910.239 41.2271C922.655 35.973 935.144 31.5594 937.991 31.4205C941.417 31.2523 946.248 38.5371 952.302 52.99C957.326 64.9954 979.516 111.918 1001.61 157.265C1023.71 202.613 1043.84 244.423 1046.34 250.179L1050.88 260.641L1022.18 275.058L993.471 289.477L947.244 193.462C886.45 67.1942 881.769 56.6696 884.954 53.4847ZM704.866 167.673L705.133 108.309L705.393 48.9482L714.544 68.3482C744.416 131.693 757.03 161.145 755.109 163.066C753.91 164.265 742.117 165.791 728.901 166.457L704.866 167.673ZM984.828 97.1314C983.105 91.3374 985.527 89.1096 1001.46 81.8346C1011.72 77.1527 1020.49 73.2954 1020.94 73.2597C1021.75 73.1983 1067 167.091 1067 168.834C1067 170.166 1030.55 186.595 1029.8 185.602C1026.49 181.237 986.366 102.302 984.828 97.1314ZM518.95 283.183C529.62 277.963 588.548 250.596 649.901 222.372C711.253 194.148 762.319 171.54 763.384 172.132C764.447 172.724 773.756 191.81 784.068 214.543C794.377 237.281 804.266 257.733 806.035 260.001C807.21 261.503 808.242 262.412 808.24 263.318C808.234 265.407 802.736 267.48 780.85 276.825C755.507 287.643 753.775 287.912 695.167 290.077C662.267 291.294 604.795 292.375 567.45 292.484L499.55 292.678L518.95 283.183ZM812.314 234.245C812.943 232.353 836.676 219.48 865.056 205.642C893.431 191.8 918.458 180.348 920.669 180.189C924.924 179.882 953.694 235.341 988.384 310.719L1009.28 356.114L998.247 365.815C992.181 371.15 969.511 391.267 947.875 410.523L908.534 445.526L887.534 401.226C875.984 376.86 866.533 356.281 866.533 355.497C866.533 354.712 854.075 327.883 838.85 295.879C823.624 263.871 811.683 236.135 812.314 234.245ZM61.4334 323.931C61.4334 322.114 82.8801 299.144 109.096 272.886C135.309 246.628 158.155 225.611 159.862 226.18C165.036 227.903 271.118 443.842 267.959 446.217C263.849 449.306 155.375 499.999 152.875 499.999C151.191 499.999 140.66 481.597 129.479 459.103C118.295 436.612 98.4129 397.742 85.2888 372.721C72.1679 347.701 61.4334 325.748 61.4334 323.931ZM782.171 341.566C796.949 321.114 810.568 301.11 812.439 297.106C814.309 293.103 816.778 289.831 817.926 289.831C819.725 289.831 845.3 342.816 884.701 428.17L895.576 451.727L864.078 472.157C798.164 514.908 808.628 511.765 712.95 517.556C666.712 520.355 625.343 522.641 621.017 522.639C614.573 522.631 626.014 509.608 684.228 450.69C734.323 399.984 763.238 367.772 782.171 341.566ZM748.517 308.191L769.534 299.134C793.831 288.664 800.144 287.697 797.391 294.87C794.869 301.443 769.442 336.808 756.843 351.265L746.981 362.581L747.75 335.387L748.517 308.191ZM457.516 314.968C472.621 308.099 479.212 307.501 557.749 305.892C695.086 303.079 731.885 302.693 730.466 304.077C729.722 304.798 702.726 317.079 670.474 331.365C638.22 345.653 545.637 388.71 464.733 427.051C383.826 465.394 316.113 496.764 314.256 496.764C311.078 496.764 268.315 413.415 268.411 407.409C268.448 405.132 390.978 345.238 457.516 314.968ZM604.109 494.845C601.259 473.73 600.819 382.024 603.557 379.288C606.86 375.983 730.732 376.714 730.732 380.038C730.732 381.635 702.724 411.692 668.492 446.826L606.25 510.711L604.109 494.845ZM436.549 456.348L510.084 421.868C550.526 402.902 584.558 387.261 585.706 387.109C589.701 386.58 592.085 479.734 591.085 597.625L590.084 716.273L543.201 646.601C517.414 608.283 482.894 557.804 466.489 534.424C437.699 493.392 436.661 491.298 436.607 474.132L436.549 456.348ZM17.7833 423.433C19.5616 422.781 34.1117 415.97 50.1167 408.301C69.7753 398.88 80.0478 395.493 81.7775 397.867C85.0302 402.333 204.023 642.956 204.764 646.572C205.255 648.958 144.727 677.831 139.234 677.831C138.031 677.831 134.345 671.646 131.044 664.09C118.482 635.333 87.0801 570.042 51.4909 498.686C31.1724 457.948 16.0049 424.085 17.7833 423.433ZM158.931 514.591C159.639 513.878 184.918 501.628 215.101 487.361C245.287 473.101 271.881 461.741 274.202 462.122C278.229 462.783 417.583 729.856 415.234 732.411C413.315 734.495 263.818 722.693 258.683 720.049C256.022 718.682 244.799 698.075 233.744 674.255C222.686 650.435 201.039 605.059 185.639 573.415C170.242 541.77 158.22 515.299 158.931 514.591ZM0 530.958C0 529.946 9.09544 524.95 20.2084 519.851C31.3247 514.756 41.5485 511.586 42.9291 512.815C47.4105 516.796 90.779 604.344 89.7671 607.378C89.2304 608.993 80.0866 613.864 69.4523 618.202C51.2128 625.64 49.8776 625.765 45.9167 620.434C41.1897 614.068 0 533.805 0 530.958ZM439.904 736.031L439.01 629.331C438.518 570.644 438.843 522.645 439.733 522.664C445.085 522.787 582.001 726.199 582.001 734.03C582.001 735.131 550.028 736.031 510.951 736.031H439.904ZM423.018 710.819C419.506 707.138 382.703 637.929 356.907 586.49C335.772 544.34 333.754 538.798 339.535 538.798C345.902 538.798 420.738 554.289 422.399 555.952C422.855 556.41 423.67 591.95 424.208 634.935C424.743 677.919 424.21 712.067 423.018 710.819Z" fill="#FF6200"/>
<path d="M1232.59 88.4951H1325.26V439.745C1325.26 444.229 1324.88 452.574 1324.13 464.781C1323.39 476.987 1321.14 490.813 1317.41 506.258C1313.67 521.703 1307.57 537.896 1299.1 554.835C1290.63 571.775 1278.67 587.22 1263.23 601.17C1247.78 615.121 1228.1 626.58 1204.19 635.548C1180.27 644.516 1150.88 649 1116 649V557.825C1145.4 557.825 1167.94 552.344 1183.63 541.383C1199.33 530.422 1210.66 517.842 1217.64 503.642C1224.61 489.443 1228.6 475.866 1229.6 462.912C1230.59 449.959 1231.34 441.24 1231.84 436.755L1232.59 88.4951Z" fill="#FF6200"/>
<path d="M1759.46 89.2427C1788.36 90.7374 1814.26 97.4634 1837.18 109.421C1846.65 114.403 1856.12 120.756 1865.58 128.478C1875.05 136.201 1883.39 145.791 1890.62 157.251C1897.84 168.71 1903.7 182.162 1908.18 197.607C1912.66 213.052 1914.91 230.988 1914.91 251.415C1914.91 272.341 1912.66 290.526 1908.18 305.971C1903.7 321.416 1897.84 334.993 1890.62 346.701C1883.39 358.409 1875.05 368.249 1865.58 376.221C1856.12 384.193 1846.65 390.67 1837.18 395.652C1814.26 408.108 1788.36 415.083 1759.46 416.578H1571.13V649H1477.71V322.413H1752.73C1753.23 322.413 1757.22 322.039 1764.69 321.292C1772.16 320.544 1780.01 317.929 1788.23 313.445C1796.45 308.961 1804.05 301.985 1811.03 292.519C1818 283.053 1821.49 269.352 1821.49 251.415C1821.49 233.977 1817.88 220.65 1810.65 211.433C1803.43 202.216 1795.58 195.365 1787.11 190.881C1777.15 185.4 1765.69 182.411 1752.73 181.913H1477.71V88.4951H1759.46V89.2427Z" fill="#FF6200"/>
<path d="M2263.91 326.897H2606.94V421.061H2357.33V649H2263.91V326.897ZM2263.91 88.4951H2637.58V181.913H2263.91V88.4951Z" fill="#FF6200"/>
<path d="M2778.83 88.4951H2871.5V576.508L2778.83 649V88.4951Z" fill="#FF6200"/>
<path d="M3342.33 87.748V181.165H3155.49V649H3061.33V87.748H3342.33Z" fill="#FF6200"/>
<path d="M3864.72 160.239L3958.13 87V649L3573.25 305.971V575.761L3479.84 649V87L3864.72 440.492V160.239Z" fill="#FF6200"/>
<path d="M4113.58 649V555.583H4488V649H4113.58ZM4446.15 321.665V415.083H4113.58V321.665H4446.15ZM4113.58 88.4951H4488V181.913H4113.58V88.4951Z" fill="#FF6200"/>
<path d="M4818.32 317.181C4822.31 317.679 4829.16 318.675 4838.87 320.17C4848.59 321.665 4859.55 324.53 4871.76 328.765C4883.96 333 4896.54 338.605 4909.5 345.58C4922.45 352.555 4934.16 362.146 4944.62 374.352C4955.09 386.559 4963.8 401.381 4970.78 418.819C4977.76 436.257 4981.24 457.182 4981.24 481.596C4981.24 482.592 4980.87 487.45 4980.12 496.169C4979.37 504.888 4977.01 515.475 4973.02 527.931C4969.04 540.386 4963.06 553.589 4955.09 567.54C4947.11 581.49 4935.65 594.568 4920.71 606.775C4905.76 618.982 4886.95 629.071 4864.28 637.042C4841.61 645.014 4813.84 649 4780.96 649C4750.56 649 4721.79 642.647 4694.64 629.943C4667.48 617.238 4644.19 599.675 4624.76 577.255L4700.99 518.215C4700.99 518.714 4702.86 520.956 4706.6 524.941C4710.33 528.927 4715.81 533.162 4723.04 537.646C4730.26 542.13 4739.48 546.241 4750.69 549.977C4761.9 553.714 4775.23 555.582 4790.67 555.582C4819.07 555.582 4841.24 548.234 4857.18 533.536C4873.13 518.838 4881.1 501.525 4881.1 481.596C4881.1 467.147 4878.11 455.314 4872.13 446.097C4866.15 436.88 4858.06 429.406 4847.84 423.677C4837.63 417.947 4825.92 413.463 4812.72 410.225C4799.51 406.986 4785.44 403.873 4770.49 400.883C4766.51 400.385 4759.91 399.139 4750.69 397.146C4741.47 395.154 4731.26 391.915 4720.05 387.431C4708.84 382.947 4697.13 377.093 4684.92 369.869C4672.72 362.644 4661.75 353.427 4652.04 342.217C4642.32 331.007 4634.23 317.555 4627.75 301.861C4621.27 286.167 4618.04 267.608 4618.04 246.184C4618.04 245.187 4618.41 240.579 4619.16 232.358C4619.9 224.137 4622.15 214.173 4625.88 202.465C4629.62 190.756 4635.6 178.176 4643.82 164.724C4652.04 151.272 4663.62 138.941 4678.57 127.731C4693.52 116.52 4712.32 107.179 4734.99 99.7053C4757.66 92.2319 4785.44 88.4951 4818.32 88.4951C4848.71 88.4951 4877.61 94.9722 4905.01 107.926C4932.42 120.88 4955.83 138.567 4975.26 160.987L4899.04 220.027C4893.55 210.561 4885.83 203.212 4875.87 197.981C4865.9 192.749 4855.94 188.888 4845.97 186.397C4834.02 183.906 4821.31 182.411 4807.86 181.913C4779.46 181.913 4757.29 187.518 4741.35 198.728C4725.4 209.938 4717.43 225.757 4717.43 246.184C4717.43 260.633 4719.92 271.967 4724.9 280.188C4729.89 288.409 4736.74 294.761 4745.46 299.245C4754.18 303.729 4764.76 307.092 4777.22 309.334C4789.67 311.576 4803.38 314.191 4818.32 317.181Z" fill="#FF6200"/>
<path d="M5286.16 317.181C5290.14 317.679 5296.99 318.675 5306.71 320.17C5316.42 321.665 5327.39 324.53 5339.59 328.765C5351.8 333 5364.38 338.605 5377.33 345.58C5390.29 352.555 5402 362.146 5412.46 374.352C5422.92 386.559 5431.64 401.381 5438.61 418.819C5445.59 436.257 5449.08 457.182 5449.08 481.596C5449.08 482.592 5448.7 487.45 5447.96 496.169C5447.21 504.888 5444.84 515.475 5440.86 527.931C5436.87 540.386 5430.89 553.589 5422.92 567.54C5414.95 581.49 5403.49 594.568 5388.54 606.775C5373.6 618.982 5354.79 629.071 5332.12 637.042C5309.45 645.014 5281.67 649 5248.79 649C5218.4 649 5189.63 642.647 5162.47 629.943C5135.32 617.238 5112.03 599.675 5092.6 577.255L5168.82 518.215C5168.82 518.714 5170.69 520.956 5174.43 524.941C5178.17 528.927 5183.65 533.162 5190.87 537.646C5198.1 542.13 5207.31 546.241 5218.52 549.977C5229.73 553.714 5243.06 555.582 5258.51 555.582C5286.9 555.582 5309.08 548.234 5325.02 533.536C5340.96 518.838 5348.93 501.525 5348.93 481.596C5348.93 467.147 5345.94 455.314 5339.97 446.097C5333.99 436.88 5325.89 429.406 5315.68 423.677C5305.46 417.947 5293.76 413.463 5280.55 410.225C5267.35 406.986 5253.27 403.873 5238.33 400.883C5234.34 400.385 5227.74 399.139 5218.52 397.146C5209.31 395.154 5199.09 391.915 5187.88 387.431C5176.67 382.947 5164.96 377.093 5152.76 369.869C5140.55 362.644 5129.59 353.427 5119.87 342.217C5110.16 331.007 5102.06 317.555 5095.59 301.861C5089.11 286.167 5085.87 267.608 5085.87 246.184C5085.87 245.187 5086.24 240.579 5086.99 232.358C5087.74 224.137 5089.98 214.173 5093.72 202.465C5097.45 190.756 5103.43 178.176 5111.65 164.724C5119.87 151.272 5131.46 138.941 5146.4 127.731C5161.35 116.52 5180.16 107.179 5202.83 99.7053C5225.5 92.2319 5253.27 88.4951 5286.16 88.4951C5316.55 88.4951 5345.45 94.9722 5372.85 107.926C5400.25 120.88 5423.67 138.567 5443.1 160.987L5366.87 220.027C5361.39 210.561 5353.67 203.212 5343.7 197.981C5333.74 192.749 5323.77 188.888 5313.81 186.397C5301.85 183.906 5289.15 182.411 5275.69 181.913C5247.3 181.913 5225.12 187.518 5209.18 198.728C5193.24 209.938 5185.27 225.757 5185.27 246.184C5185.27 260.633 5187.76 271.967 5192.74 280.188C5197.72 288.409 5204.57 294.761 5213.29 299.245C5222.01 303.729 5232.6 307.092 5245.05 309.334C5257.51 311.576 5271.21 314.191 5286.16 317.181Z" fill="#FF6200"/>
</svg>
