<svg width="1981" height="1596" viewBox="0 0 1981 1596" fill="none" xmlns="http://www.w3.org/2000/svg">
<path fill-rule="evenodd" clip-rule="evenodd" d="M1253.41 13.023C1259.56 12.762 1300.28 9.57867 1343.91 5.95026C1387.54 2.32684 1432.05 -0.334375 1442.84 0.0340889L1462.44 0.709601L1493.2 67.2404C1510.11 103.832 1537.45 162.026 1553.95 196.556L1583.95 259.341L1503.59 299.505C1459.4 321.599 1418.49 341.148 1412.7 342.949C1403.27 345.882 1397.23 336.078 1355.55 250.236C1244.67 21.8664 1241.09 13.5552 1253.41 13.023ZM823.269 477.178C818.806 472.721 814.284 32.5114 818.582 21.3035C821.125 14.6761 836.905 13.5041 923.39 13.5041H1025.2L1028.69 47.5933C1035.46 113.659 1057.23 353.947 1057.28 363.008C1057.31 369.404 1046.87 376.845 1022.77 387.622C1003.77 396.119 951.952 420.581 907.61 441.988C863.277 463.393 825.321 479.229 823.269 477.178ZM1141.76 123.782C1098.13 65.0041 1062.43 16.1398 1062.43 15.2084C1062.43 14.2718 1098.13 13.5042 1141.76 13.5042H1221.09V230.656L1141.76 123.782ZM1063.08 183.67C1059.83 139.34 1055.93 89.8201 1054.43 73.6378C1052.92 57.4554 1052.78 44.2107 1054.12 44.2107C1057.92 44.2107 1215.97 256.552 1215.97 261.665C1215.97 263.103 1182.89 264.274 1142.48 264.274H1068.99L1063.08 183.67ZM1531.72 84.6563C1534.07 82.3021 1552.08 73.5712 1571.74 65.2548C1591.39 56.9385 1611.16 49.9527 1615.67 49.7328C1621.09 49.4666 1628.73 60.9971 1638.32 83.8733C1646.27 102.876 1681.39 177.145 1716.37 248.921C1751.34 320.698 1783.2 386.876 1787.15 395.987L1794.35 412.546L1748.91 435.365L1703.48 458.188L1630.31 306.215C1534.09 106.356 1526.68 89.6975 1531.72 84.6563ZM1246.67 265.395L1247.09 171.433L1247.51 77.476L1261.99 108.183C1309.27 208.445 1329.24 255.063 1326.2 258.103C1324.3 260.001 1305.63 262.417 1284.71 263.471L1246.67 265.395ZM1689.8 153.741C1687.07 144.57 1690.91 141.044 1716.13 129.529C1732.37 122.118 1746.24 116.013 1746.96 115.957C1748.24 115.859 1819.86 264.474 1819.86 267.233C1819.86 269.341 1762.17 295.344 1760.98 293.773C1755.75 286.864 1692.23 161.924 1689.8 153.741ZM952.401 448.226C969.29 439.963 1062.56 396.647 1159.67 351.974C1256.78 307.299 1337.61 271.516 1339.3 272.453C1340.98 273.389 1355.71 303.6 1372.03 339.581C1388.35 375.572 1404 407.944 1406.8 411.533C1408.66 413.911 1410.3 415.349 1410.29 416.784C1410.28 420.089 1401.58 423.372 1366.94 438.162C1326.83 455.285 1324.09 455.711 1231.32 459.138C1179.25 461.064 1088.28 462.776 1029.17 462.948L921.695 463.254L952.401 448.226ZM1416.74 370.766C1417.74 367.771 1455.3 347.396 1500.22 325.493C1545.14 303.584 1584.75 285.457 1588.25 285.206C1594.98 284.72 1640.52 372.501 1695.43 491.81L1728.5 563.663L1711.04 579.017C1701.44 587.462 1665.56 619.303 1631.31 649.782L1569.04 705.184L1535.8 635.067C1517.52 596.5 1502.56 563.926 1502.56 562.686C1502.56 561.443 1482.84 518.977 1458.74 468.321C1434.64 417.659 1415.74 373.758 1416.74 370.766ZM228.238 512.723C228.238 509.847 262.184 473.49 303.679 431.928C345.168 390.366 381.33 357.1 384.033 358.001C392.221 360.729 560.13 702.519 555.129 706.279C548.624 711.168 376.929 791.405 372.973 791.405C370.307 791.405 353.638 762.279 335.941 726.674C318.238 691.076 286.769 629.551 265.996 589.949C245.228 550.346 228.238 515.599 228.238 512.723ZM1369.03 540.635C1392.42 508.263 1413.98 476.601 1416.94 470.264C1419.9 463.927 1423.81 458.749 1425.63 458.749C1428.47 458.749 1468.95 542.615 1531.32 677.714L1548.53 715.001L1498.68 747.336C1394.35 815.003 1410.91 810.029 1259.47 819.195C1186.28 823.625 1120.8 827.244 1113.95 827.241C1103.76 827.228 1121.86 806.615 1214.01 713.358C1293.3 633.101 1339.06 582.115 1369.03 540.635ZM1315.76 487.809L1349.03 473.473C1387.49 456.901 1397.48 455.371 1393.12 466.725C1389.13 477.128 1348.88 533.105 1328.94 555.987L1313.33 573.898L1314.55 530.855L1315.76 487.809ZM855.163 498.536C879.071 487.664 889.504 486.717 1013.81 484.171C1231.19 479.718 1289.44 479.107 1287.19 481.298C1286.01 482.439 1243.28 501.877 1192.24 524.489C1141.18 547.104 994.642 615.255 866.585 675.942C738.525 736.633 631.349 786.286 628.41 786.286C623.379 786.286 555.693 654.36 555.845 644.853C555.904 641.248 749.846 546.447 855.163 498.536ZM1087.19 783.248C1082.68 749.827 1081.98 604.674 1086.32 600.343C1091.55 595.111 1287.61 596.269 1287.61 601.53C1287.61 604.057 1243.28 651.632 1189.1 707.243L1090.58 808.36L1087.19 783.248ZM821.976 722.314L938.369 667.739C1002.38 637.719 1056.25 612.963 1058.06 612.722C1064.39 611.884 1068.16 759.33 1066.58 945.929L1064.99 1133.73L990.786 1023.45C949.97 962.798 895.332 882.901 869.366 845.894C823.797 780.949 822.154 777.634 822.068 750.463L821.976 722.314ZM159.148 670.216C161.962 669.184 184.992 658.404 210.325 646.265C241.441 631.352 257.701 625.992 260.439 629.749C265.587 636.818 453.931 1017.68 455.103 1023.4C455.881 1027.18 360.077 1072.88 351.381 1072.88C349.478 1072.88 343.643 1063.09 338.418 1051.13C318.535 1005.61 268.832 902.27 212.501 789.327C180.34 724.847 156.333 671.248 159.148 670.216ZM382.559 814.502C383.68 813.374 423.69 793.985 471.464 771.403C519.244 748.831 561.337 730.85 565.011 731.454C571.384 732.499 791.956 1155.23 788.238 1159.27C785.2 1162.57 548.575 1143.89 540.447 1139.7C536.235 1137.54 518.472 1104.92 500.973 1067.22C483.471 1029.52 449.208 957.695 424.832 907.61C400.461 857.521 381.433 815.623 382.559 814.502ZM131 840.409C131 838.805 145.396 830.899 162.986 822.827C180.581 814.762 196.763 809.745 198.949 811.691C206.042 817.992 274.686 956.564 273.085 961.367C272.235 963.923 257.762 971.632 240.93 978.5C212.06 990.272 209.947 990.47 203.678 982.032C196.196 971.955 131 844.914 131 840.409ZM827.286 1165L825.871 996.114C825.093 903.223 825.607 827.25 827.016 827.28C835.487 827.475 1052.2 1149.44 1052.2 1161.83C1052.2 1163.58 1001.59 1165 939.741 1165H827.286ZM800.558 1125.09C795 1119.27 736.748 1009.72 695.918 928.305C662.464 861.589 659.271 852.818 668.421 852.818C678.498 852.818 796.95 877.336 799.579 879.968C800.301 880.694 801.591 936.947 802.442 1004.98C803.29 1073.02 802.445 1127.07 800.558 1125.09Z" fill="#FF6200"/>
<path d="M53.3005 1339.68H95.6675V1500.27C95.6675 1502.32 95.4967 1506.13 95.155 1511.71C94.8133 1517.29 93.7883 1523.62 92.0799 1530.68C90.3716 1537.74 87.5813 1545.14 83.709 1552.89C79.8368 1560.63 74.3701 1567.69 67.3089 1574.07C60.2477 1580.45 51.2505 1585.69 40.317 1589.79C29.3836 1593.89 15.9446 1595.94 0 1595.94V1554.25C13.439 1554.25 23.746 1551.75 30.9211 1546.74C38.0961 1541.72 43.2781 1535.97 46.467 1529.48C49.656 1522.99 51.4782 1516.78 51.9337 1510.86C52.3893 1504.94 52.731 1500.95 52.9588 1498.9L53.3005 1339.68Z" fill="#FF6200"/>
<path d="M294.178 1340.03C307.389 1340.71 319.233 1343.78 329.711 1349.25C334.039 1351.53 338.367 1354.43 342.695 1357.96C347.022 1361.49 350.838 1365.88 354.141 1371.12C357.443 1376.36 360.12 1382.51 362.17 1389.57C364.22 1396.63 365.245 1404.83 365.245 1414.17C365.245 1423.73 364.22 1432.05 362.17 1439.11C360.12 1446.17 357.443 1452.38 354.141 1457.73C350.838 1463.08 347.022 1467.58 342.695 1471.23C338.367 1474.87 334.039 1477.83 329.711 1480.11C319.233 1485.8 307.389 1488.99 294.178 1489.68H208.077V1595.94H165.368V1446.63H291.103C291.33 1446.63 293.153 1446.46 296.569 1446.11C299.986 1445.77 303.574 1444.58 307.332 1442.53C311.09 1440.48 314.564 1437.29 317.753 1432.96C320.942 1428.63 322.536 1422.37 322.536 1414.17C322.536 1406.2 320.885 1400.1 317.582 1395.89C314.279 1391.67 310.692 1388.54 306.819 1386.49C302.264 1383.99 297.025 1382.62 291.103 1382.39H165.368V1339.68H294.178V1340.03Z" fill="#FF6200"/>
<path d="M524.804 1448.68H681.631V1491.73H567.513V1595.94H524.804V1448.68ZM524.804 1339.68H695.639V1382.39H524.804V1339.68Z" fill="#FF6200"/>
<path d="M760.215 1339.68H802.582V1562.79L760.215 1595.94V1339.68Z" fill="#FF6200"/>
<path d="M1017.83 1339.34V1382.05H932.416V1595.94H889.366V1339.34H1017.83Z" fill="#FF6200"/>
<path d="M1256.66 1372.48L1299.37 1339V1595.94L1123.41 1439.11V1562.45L1080.7 1595.94V1339L1256.66 1500.61V1372.48Z" fill="#FF6200"/>
<path d="M1370.44 1595.94V1553.23H1541.61V1595.94H1370.44ZM1522.48 1446.28V1488.99H1370.44V1446.28H1522.48ZM1370.44 1339.68H1541.61V1382.39H1370.44V1339.68Z" fill="#FF6200"/>
<path d="M1692.63 1444.23C1694.45 1444.46 1697.59 1444.92 1702.03 1445.6C1706.47 1446.28 1711.48 1447.59 1717.06 1449.53C1722.64 1451.47 1728.39 1454.03 1734.31 1457.22C1740.24 1460.41 1745.59 1464.79 1750.37 1470.37C1755.16 1475.95 1759.14 1482.73 1762.33 1490.7C1765.52 1498.67 1767.12 1508.24 1767.12 1519.4C1767.12 1519.86 1766.94 1522.08 1766.6 1526.06C1766.26 1530.05 1765.18 1534.89 1763.36 1540.59C1761.53 1546.28 1758.8 1552.32 1755.16 1558.69C1751.51 1565.07 1746.27 1571.05 1739.44 1576.63C1732.61 1582.21 1724.01 1586.82 1713.64 1590.47C1703.28 1594.11 1690.58 1595.94 1675.55 1595.94C1661.65 1595.94 1648.5 1593.03 1636.08 1587.22C1623.67 1581.41 1613.02 1573.39 1604.14 1563.14L1638.99 1536.14C1638.99 1536.37 1639.84 1537.4 1641.55 1539.22C1643.26 1541.04 1645.77 1542.98 1649.07 1545.03C1652.37 1547.08 1656.58 1548.96 1661.71 1550.66C1666.83 1552.37 1672.93 1553.23 1679.99 1553.23C1692.97 1553.23 1703.11 1549.87 1710.4 1543.15C1717.69 1536.43 1721.33 1528.51 1721.33 1519.4C1721.33 1512.8 1719.96 1507.39 1717.23 1503.17C1714.5 1498.96 1710.8 1495.54 1706.13 1492.92C1701.46 1490.3 1696.1 1488.25 1690.07 1486.77C1684.03 1485.29 1677.6 1483.87 1670.76 1482.5C1668.94 1482.27 1665.92 1481.7 1661.71 1480.79C1657.5 1479.88 1652.83 1478.4 1647.7 1476.35C1642.58 1474.3 1637.22 1471.62 1631.64 1468.32C1626.06 1465.02 1621.05 1460.81 1616.61 1455.68C1612.17 1450.56 1608.47 1444.41 1605.51 1437.23C1602.54 1430.06 1601.06 1421.57 1601.06 1411.78C1601.06 1411.32 1601.23 1409.21 1601.58 1405.46C1601.92 1401.7 1602.94 1397.14 1604.65 1391.79C1606.36 1386.44 1609.09 1380.68 1612.85 1374.53C1616.61 1368.38 1621.91 1362.75 1628.74 1357.62C1635.57 1352.5 1644.17 1348.23 1654.53 1344.81C1664.9 1341.39 1677.6 1339.68 1692.63 1339.68C1706.53 1339.68 1719.74 1342.64 1732.26 1348.57C1744.79 1354.49 1755.5 1362.58 1764.38 1372.83L1729.53 1399.82C1727.03 1395.49 1723.5 1392.13 1718.94 1389.74C1714.38 1387.35 1709.83 1385.58 1705.27 1384.44C1699.81 1383.3 1694 1382.62 1687.85 1382.39C1674.86 1382.39 1664.73 1384.95 1657.44 1390.08C1650.15 1395.2 1646.51 1402.44 1646.51 1411.78C1646.51 1418.38 1647.64 1423.56 1649.92 1427.32C1652.2 1431.08 1655.33 1433.98 1659.32 1436.03C1663.3 1438.08 1668.14 1439.62 1673.84 1440.65C1679.53 1441.67 1685.8 1442.87 1692.63 1444.23Z" fill="#FF6200"/>
<path d="M1906.52 1444.23C1908.34 1444.46 1911.47 1444.92 1915.91 1445.6C1920.35 1446.28 1925.36 1447.59 1930.95 1449.53C1936.53 1451.47 1942.28 1454.03 1948.2 1457.22C1954.12 1460.41 1959.47 1464.79 1964.26 1470.37C1969.04 1475.95 1973.03 1482.73 1976.22 1490.7C1979.41 1498.67 1981 1508.24 1981 1519.4C1981 1519.86 1980.83 1522.08 1980.49 1526.06C1980.15 1530.05 1979.06 1534.89 1977.24 1540.59C1975.42 1546.28 1972.69 1552.32 1969.04 1558.69C1965.4 1565.07 1960.16 1571.05 1953.32 1576.63C1946.49 1582.21 1937.89 1586.82 1927.53 1590.47C1917.16 1594.11 1904.47 1595.94 1889.43 1595.94C1875.54 1595.94 1862.38 1593.03 1849.97 1587.22C1837.56 1581.41 1826.91 1573.39 1818.02 1563.14L1852.87 1536.14C1852.87 1536.37 1853.73 1537.4 1855.44 1539.22C1857.14 1541.04 1859.65 1542.98 1862.95 1545.03C1866.26 1547.08 1870.47 1548.96 1875.59 1550.66C1880.72 1552.37 1886.81 1553.23 1893.87 1553.23C1906.86 1553.23 1916.99 1549.87 1924.28 1543.15C1931.57 1536.43 1935.22 1528.51 1935.22 1519.4C1935.22 1512.8 1933.85 1507.39 1931.12 1503.17C1928.38 1498.96 1924.68 1495.54 1920.01 1492.92C1915.34 1490.3 1909.99 1488.25 1903.95 1486.77C1897.92 1485.29 1891.48 1483.87 1884.65 1482.5C1882.83 1482.27 1879.81 1481.7 1875.59 1480.79C1871.38 1479.88 1866.71 1478.4 1861.59 1476.35C1856.46 1474.3 1851.11 1471.62 1845.53 1468.32C1839.95 1465.02 1834.94 1460.81 1830.49 1455.68C1826.05 1450.56 1822.35 1444.41 1819.39 1437.23C1816.43 1430.06 1814.95 1421.57 1814.95 1411.78C1814.95 1411.32 1815.12 1409.21 1815.46 1405.46C1815.8 1401.7 1816.83 1397.14 1818.54 1391.79C1820.24 1386.44 1822.98 1380.68 1826.74 1374.53C1830.49 1368.38 1835.79 1362.75 1842.62 1357.62C1849.46 1352.5 1858.06 1348.23 1868.42 1344.81C1878.78 1341.39 1891.48 1339.68 1906.52 1339.68C1920.41 1339.68 1933.62 1342.64 1946.15 1348.57C1958.68 1354.49 1969.38 1362.58 1978.27 1372.83L1943.42 1399.82C1940.91 1395.49 1937.38 1392.13 1932.82 1389.74C1928.27 1387.35 1923.71 1385.58 1919.16 1384.44C1913.69 1383.3 1907.88 1382.62 1901.73 1382.39C1888.75 1382.39 1878.61 1384.95 1871.32 1390.08C1864.03 1395.2 1860.39 1402.44 1860.39 1411.78C1860.39 1418.38 1861.53 1423.56 1863.81 1427.32C1866.09 1431.08 1869.22 1433.98 1873.2 1436.03C1877.19 1438.08 1882.03 1439.62 1887.72 1440.65C1893.42 1441.67 1899.68 1442.87 1906.52 1444.23Z" fill="#FF6200"/>
</svg>
